<svg width="40" height="41" viewBox="0 0 40 41" fill="none" xmlns="http://www.w3.org/2000/svg">
<g clip-path="url(#clip0_908_1040)">
<path d="M37.1372 16.4312C37.5845 15.0843 37.7391 13.6575 37.5909 12.2461C37.4427 10.8347 36.995 9.47112 36.2777 8.24654C35.2143 6.39558 33.5906 4.93013 31.6407 4.06147C29.6907 3.1928 27.5153 2.96581 25.4281 3.4132C24.2422 2.09414 22.7302 1.11032 21.0438 0.560557C19.3574 0.0107913 17.5561 -0.0855642 15.8207 0.281167C14.0853 0.647899 12.4769 1.46481 11.1572 2.64984C9.83739 3.83488 8.85266 5.34632 8.30189 7.03237C6.91133 7.31752 5.59765 7.89618 4.44865 8.72969C3.29964 9.5632 2.34177 10.6324 1.63906 11.8657C0.564115 13.7136 0.104692 15.8554 0.327208 17.9816C0.549725 20.1078 1.44265 22.1081 2.87689 23.6934C2.428 25.0396 2.27176 26.4661 2.41864 27.8776C2.56551 29.2891 3.01211 30.6529 3.72856 31.8779C4.79329 33.7295 6.41842 35.1953 8.36974 36.0639C10.3211 36.9326 12.4978 37.1593 14.5862 36.7114C15.5283 37.7723 16.6859 38.62 17.9817 39.1979C19.2775 39.7758 20.6817 40.0707 22.1006 40.0627C24.2399 40.0647 26.3246 39.3868 28.0537 38.1268C29.7827 36.8669 31.0667 35.0902 31.7202 33.053C33.1106 32.7674 34.4241 32.1885 35.573 31.355C36.722 30.5215 37.68 29.4526 38.3831 28.2195C39.4453 26.3744 39.8968 24.2406 39.673 22.1233C39.4493 20.006 38.5617 18.0136 37.1372 16.4312ZM22.1006 37.4447C20.3484 37.4475 18.6512 36.8334 17.3066 35.71L17.5431 35.576L25.5069 30.979C25.7051 30.8628 25.8697 30.697 25.9844 30.4979C26.0992 30.2988 26.1601 30.0733 26.1614 29.8435V18.6154L29.5281 20.563C29.5447 20.5715 29.5591 20.5837 29.5701 20.5988C29.5811 20.6138 29.5884 20.6313 29.5914 20.6497V29.954C29.5872 31.9394 28.7966 33.8423 27.3927 35.2461C25.9888 36.65 24.0859 37.4405 22.1006 37.4447ZM5.99939 30.569C5.12068 29.0517 4.80518 27.2732 5.10839 25.5462L5.34506 25.6882L13.3167 30.2852C13.514 30.4009 13.7385 30.462 13.9672 30.462C14.1959 30.462 14.4205 30.4009 14.6177 30.2852L24.3557 24.671V28.5584C24.3548 28.5785 24.3494 28.5982 24.3398 28.6159C24.3302 28.6337 24.3167 28.649 24.3004 28.6609L16.2341 33.313C14.5126 34.3047 12.468 34.5727 10.5491 34.0583C8.63018 33.5438 6.99386 32.2889 5.99939 30.569ZM3.90206 13.222C4.78686 11.695 6.18344 10.5303 7.84456 9.93404V19.396C7.84156 19.6246 7.89997 19.8498 8.01368 20.0482C8.1274 20.2465 8.29226 20.4106 8.49106 20.5235L18.1817 26.114L14.8149 28.0615C14.7967 28.0712 14.7764 28.0763 14.7557 28.0763C14.7351 28.0763 14.7148 28.0712 14.6966 28.0615L6.64606 23.4174C4.92783 22.4214 3.6743 20.7851 3.16 18.8668C2.6457 16.9486 2.91253 14.9047 3.90206 13.1827V13.222ZM31.5626 19.6484L21.8404 14.0027L25.1994 12.0627C25.2176 12.053 25.2379 12.048 25.2586 12.048C25.2792 12.048 25.2995 12.053 25.3177 12.0627L33.3682 16.7149C34.5991 17.4251 35.6026 18.4709 36.2615 19.73C36.9204 20.9892 37.2075 22.4098 37.0892 23.826C36.971 25.2422 36.4524 26.5956 35.5938 27.7281C34.7353 28.8606 33.5724 29.7255 32.2407 30.2219V20.7599C32.2337 20.5317 32.1675 20.3092 32.0486 20.1143C31.9297 19.9194 31.7623 19.7589 31.5626 19.6484ZM34.9137 14.6099L34.6771 14.4679L26.7212 9.83154C26.5228 9.71507 26.2968 9.65368 26.0667 9.65368C25.8366 9.65368 25.6107 9.71507 25.4122 9.83154L15.6824 15.4455V11.5584C15.6803 11.5386 15.6836 11.5186 15.692 11.5006C15.7003 11.4826 15.7133 11.4671 15.7297 11.4559L23.7802 6.81154C25.0141 6.10073 26.4248 5.75593 27.8474 5.81746C29.2701 5.879 30.6457 6.34432 31.8136 7.15901C32.9815 7.97369 33.8933 9.10407 34.4423 10.4179C34.9913 11.7318 35.1549 13.1748 34.9139 14.5782L34.9137 14.6099ZM13.8449 21.501L10.4782 19.5614C10.4614 19.5512 10.447 19.5375 10.436 19.5212C10.4251 19.5048 10.4179 19.4863 10.4149 19.4669V10.1864C10.4167 8.76266 10.8239 7.36889 11.5886 6.16803C12.3534 4.96717 13.4443 4.00885 14.7336 3.4051C16.023 2.80135 17.4576 2.57714 18.8697 2.75867C20.2818 2.9402 21.613 3.51997 22.7077 4.4302L22.4711 4.56437L14.5074 9.16104C14.3092 9.27728 14.1446 9.44309 14.0299 9.64217C13.9151 9.84125 13.8541 10.0668 13.8529 10.2965L13.8449 21.501ZM15.6742 17.5587L20.0109 15.059L24.3557 17.5587V22.5577L20.0267 25.0572L15.6822 22.5577L15.6742 17.5587Z" fill="black"/>
</g>
<defs>
<clipPath id="clip0_908_1040">
<rect width="40" height="40" fill="white" transform="translate(0 0.0627441)"/>
</clipPath>
</defs>
</svg>
