<svg width="145" height="40" viewBox="0 0 145 40" fill="none" xmlns="http://www.w3.org/2000/svg">
<path fill-rule="evenodd" clip-rule="evenodd" d="M39.4675 10.7825V14.2875H40.5837C41.4262 14.2875 41.6338 14.3063 41.6838 14.9L41.6988 15.5625L41.6825 16.225C41.6325 16.8175 41.4262 16.8375 40.5825 16.8375H39.4675L39.4712 23.0875C39.4937 26.64 39.6763 26.715 41.0938 26.715C41.54 26.715 41.6687 26.8862 41.6937 27.7612L41.6988 29.6788L39.9137 29.455C38.9262 29.36 37.875 29.105 37.5237 28.945C36.6575 28.4675 36.3237 26.8138 36.285 22.46L36.2812 16.8362H32.5837L28.6 25.9188L24.65 35H21.6213L22.2263 33.5025C22.5763 32.6425 23.1513 31.2712 23.5013 30.4437L24.1712 28.8812L18.2113 14.7013C18.0838 14.3825 18.53 14.2875 19.7738 14.2875H21.4937L24.785 22.5538C25.7075 24.8163 25.955 25.195 26.1525 24.8287L28.4737 19.0988L30.3863 14.4463L36.2812 14.255V10.7825H39.4688H39.4675ZM125.164 15.4988C125.546 15.785 125.451 16.0075 124.685 16.9L123.729 17.9838L122.327 17.2187C119.777 15.8812 117.355 16.7088 116.209 19.29C115.475 20.915 115.571 22.8275 116.431 24.5162C117.579 26.6825 120.606 27.3838 122.741 25.95L123.856 25.185L124.685 26.0462C125.131 26.5237 125.514 27.0338 125.514 27.225C125.514 28.0213 121.148 29.8062 119.809 29.55L118.503 29.2963C116.145 28.8175 114.169 27.1925 113.276 25.0588C112.958 24.3575 112.766 22.9225 112.766 21.5213C112.766 19.45 112.894 19.0038 113.818 17.4738C116.08 13.6825 121.242 12.79 125.164 15.4988ZM53.65 14.3187C56.2625 15.02 58.5887 18.3975 58.5887 21.425V22.5725L49.62 22.5825C45.9075 22.6312 46.0738 22.9075 47.02 24.4837C48.5825 27.1287 52.6937 27.4163 55.3075 25.0588C56.04 24.3888 56.7725 24.5475 57.6325 25.6C57.9837 26.0137 57.92 26.2375 57.155 27.0338C55.53 28.7225 51.9288 29.87 49.825 29.3587C46.9888 28.69 45.3 27.48 44.1525 25.3125C43.1962 23.4963 43.2275 19.7688 44.185 17.8875C45.8725 14.6375 49.635 13.2037 53.65 14.3187ZM134.405 13.9688C138.899 13.9688 141.863 16.55 142.309 20.8512L142.5 22.5725H130.294V23.4012C130.294 23.9425 130.676 24.6112 131.41 25.3137C133.322 27.1287 136.063 27.1612 138.516 25.44L139.886 24.4837L140.843 25.1213C141.353 25.5038 141.768 25.9187 141.768 26.0462C141.768 26.1737 141.385 26.6512 140.906 27.1287C139.154 28.7862 135.616 29.7738 133.162 29.2963C129.497 28.5638 127.107 25.5363 127.107 21.5838C127.107 17.2513 130.263 14 134.405 13.9688ZM91.8925 15.1163L92.58 15.575C93.215 15.975 93.31 15.9037 93.3237 15.35L93.3263 15.0838C93.3263 14.4713 93.4238 14.3213 94.2175 14.2925L95.875 14.2875V28.945H94.44C93.3813 28.945 93.0775 28.8725 93.0188 28.4912L93.0062 28.3087C93.0062 27.5112 92.8475 27.5113 91.5088 28.34C89.7875 29.4238 86.8875 29.4875 84.8475 28.5313C81.82 27.065 80.3225 24.2937 80.6725 20.66C80.8963 18.2062 82.0437 16.1675 83.86 15.1163C86.3462 13.65 89.725 13.65 91.8925 15.1163ZM2.5 28.9775V7.5L8.615 7.765C11.1775 7.9025 11.9337 8.08125 12.985 8.6475C16.1075 10.24 16.905 14.3513 14.5788 16.805C14.1325 17.2825 13.9725 17.6337 14.1963 17.6975C15.8213 18.2387 17.4462 20.8512 17.4787 22.8912C17.4787 24.58 16.2663 26.715 14.6738 27.83L13.2712 28.7862L2.5 28.9775ZM109.994 16.2312C110.856 17.3912 111.136 18.94 111.169 23.2862L111.173 28.945H108.305V24.7388L108.28 22.9838C108.143 17.8513 107.435 16.6775 104.926 16.6775C103.684 16.6775 103.334 16.8362 102.536 17.7287L101.611 18.7487V28.945H98.7438V14.2875H100.177C101.106 14.2875 101.498 14.3812 101.59 14.6487L101.613 14.7975C101.613 15.085 101.708 15.2438 101.868 15.18C105.436 13.3313 108.05 13.6837 109.994 16.2312ZM64.5813 7.595C74.9375 7.595 79.3038 11.1013 78.9213 19.0988C78.6025 25.9188 74.6838 28.945 66.2063 28.945H62.4125V7.595H64.5787H64.5813ZM85.8375 17.2825C83.7337 18.685 83.0325 22.3487 84.4987 24.5162C85.9325 26.6825 89.0562 27.32 91.0637 25.8538C93.9312 23.6875 93.8038 19.0987 90.7763 17.3462C89.47 16.5812 86.985 16.5488 85.8375 17.2825ZM5.6875 19.6413V26.1413L10.8 25.9538C12.4663 25.87 12.6413 25.6925 13.3675 24.8662C13.9413 24.2287 14.2925 23.4962 14.2925 22.8912C14.2925 22.2862 13.9413 21.5537 13.3675 20.9162L13.0138 20.5262C12.3663 19.8625 11.9337 19.8512 9.065 19.7687L5.6875 19.6413ZM65.2812 10.3675V26.1425L68.0863 26.0138C70.0938 25.9188 71.2087 25.695 72.165 25.185C74.715 23.8788 75.7987 21.84 75.7987 18.43C75.7987 15.7538 75.2562 14.2875 73.7587 12.8537C72.3962 11.5213 71.1938 11.0038 68.4713 10.6825L65.2812 10.3675ZM49.9525 16.6775C48.4863 16.9325 46.4787 18.685 46.4787 19.705L46.5 19.9188C46.5963 20.26 47.0963 20.3275 49.5538 20.3387L55.4338 20.3412L55.2425 19.6413C54.6375 17.6663 52.215 16.295 49.9525 16.6775ZM133.162 16.805C131.825 17.1875 130.294 18.7487 130.294 19.7362C130.294 20.2387 130.514 20.325 133.344 20.3387L139.186 20.3412L138.868 19.3862C138.134 17.2825 135.489 16.1038 133.162 16.805ZM5.6875 10.3675V16.8375H7.75875C8.90625 16.8375 10.3087 16.6462 10.8812 16.4237C12.315 15.8187 12.7937 15.1175 12.7937 13.62C12.7937 12.6325 12.57 12.1213 11.965 11.485C11.3775 10.9225 10.9963 10.73 9.6425 10.61L5.6875 10.3675Z" fill="black"/>
</svg>
