<svg width="100" height="40" viewBox="0 0 100 40" fill="none" xmlns="http://www.w3.org/2000/svg">
<path fill-rule="evenodd" clip-rule="evenodd" d="M93.425 16.035C92.7512 13.18 91.655 12.1812 88.7675 11.8712C87.9557 11.7752 87.1365 11.7576 86.3212 11.8187C82.4812 12.13 81.2375 13.4912 81.2375 17.3087C81.2375 19.2712 81.2213 21.2337 81.2438 23.1962C81.2725 25.7912 82.455 27.5712 84.9887 28.0275C86.6912 28.3325 88.5875 28.2462 90.2637 27.8175C92.4175 27.2712 93.3737 25.385 93.1475 22.9887H87.415V19.3412H97.525C97.525 20 97.5463 20.6512 97.5688 21.2975C97.6163 22.71 97.6625 24.0937 97.475 25.4437C96.975 29.1012 93.9263 31.8775 89.615 32.3887C87.4575 32.6437 85.12 32.4537 83.015 31.8912C79.1025 30.8425 76.9475 27.6512 76.9225 23.6012C76.9062 21.2575 76.9187 18.9137 76.9225 16.5687C76.925 11.52 78.9975 8.88499 83.9637 7.88999C87.3425 7.21249 90.7113 7.31624 93.8288 9.01874C96.5225 10.4925 97.7337 12.8362 97.6225 16.0287H93.4325L93.425 16.035ZM72.1063 32.185H68.1575V12.0475H56.66V32.14H52.61V8.37124H72.1063V32.185ZM38.5087 28.5612H28.2525V8.14124H24.34V32.0912H38.5087V28.5612ZM46.095 32.1687H42.3163V8.13874H46.095V32.1687ZM2.5 32.1687H6.2775V20.7725H6.33L16.48 32.0925H21.1637L11.0137 20.7725H10.8575L21.0075 8.28124H16.3225L6.2775 20.6437V8.13874H2.5V32.1687Z" fill="black"/>
</svg>
