<svg width="118" height="40" viewBox="0 0 118 40" fill="none" xmlns="http://www.w3.org/2000/svg">
<path fill-rule="evenodd" clip-rule="evenodd" d="M2.51074 11.6625H6.81021L7.22447 13.88C8.05298 12.1263 9.86566 11.25 11.7813 11.25C12.6422 11.2576 13.4942 11.4237 14.2944 11.74L13.2839 16.8712C12.5216 16.4287 11.6543 16.1974 10.772 16.2013C9.03715 16.2013 7.61236 17.3612 7.61236 19.9662V28.2437H2.51074V11.6625ZM16.0556 22.0812V11.56H21.2338V21.125C21.2338 23.0587 22.3473 24.0912 23.9792 24.0912C25.6362 24.0912 27.061 22.8275 27.061 20.0412V11.5863H32.2405V28.1938H27.9159L27.346 26.0013C26.5175 27.3163 24.4964 28.58 21.9858 28.58C18.5926 28.555 16.0544 26.44 16.0544 22.0825L16.0556 22.0812ZM34.9068 11.6625H39.1799L39.7498 13.855C40.5532 12.5388 42.5466 11.2762 45.0322 11.2762C48.3211 11.2762 50.8066 13.3638 50.8066 17.7225V28.27H45.7063V18.78C45.7063 16.82 44.697 15.7625 43.0136 15.7625C41.4595 15.7625 40.0347 17.0263 40.0347 19.8888V28.295H34.9331L34.908 11.6625H34.9068ZM51.9465 11.56H57.0481L60.0784 22.88L62.7711 15.4275L61.4505 11.56H66.527L69.8159 22.88L72.7408 11.56H77.8701L72.432 28.27H67.2011L64.9478 21.6163L62.6179 28.27H57.4121L51.9465 11.56ZM78.155 19.915C78.155 14.215 82.2976 11.2762 86.105 11.2762C88.4348 11.2762 90.1182 12.2037 90.948 13.1587L91.4124 11.6625H96.1262V28.1663H91.6472L90.948 26.5412C90.2488 27.3662 88.7461 28.5538 85.8715 28.5538C81.754 28.5538 78.155 25.2013 78.155 19.915ZM91.1287 19.915C91.1287 17.2325 89.3939 15.5825 87.1921 15.5825C84.9651 15.5825 83.2566 17.2575 83.2566 19.915C83.2566 22.57 84.9651 24.2463 87.1921 24.2463C89.3939 24.2463 91.1287 22.5963 91.1287 19.915ZM101.436 35L104.261 27.3925L97.551 11.56H103.042L106.77 21.9L110.137 11.56H115.497L106.67 35H101.439H101.436Z" fill="black"/>
</svg>
