<svg width="226" height="40" viewBox="0 0 226 40" fill="none" xmlns="http://www.w3.org/2000/svg">
<g clip-path="url(#clip0_908_1042)">
<path fill-rule="evenodd" clip-rule="evenodd" d="M103.116 26.25V6.56H109.132C112.135 6.56 114.548 7.4675 116.37 9.2825C118.193 11.0975 119.103 13.4712 119.103 16.405C119.103 19.3562 118.192 21.735 116.37 23.5413C114.547 25.3475 112.135 26.25 109.132 26.25H103.116ZM105.643 8.98V23.83H109.132C111.42 23.83 113.225 23.175 114.543 21.8638C115.862 20.5525 116.521 18.7337 116.521 16.405C116.521 14.095 115.862 12.28 114.543 10.96C113.225 9.64 111.422 8.98 109.132 8.98H105.643ZM127.701 26.69C125.723 26.69 124.093 26.0113 122.811 24.655C121.529 23.2988 120.889 21.5837 120.889 19.5125C120.889 17.4587 121.512 15.75 122.757 14.3837C124.001 13.0175 125.595 12.335 127.536 12.335C129.533 12.335 131.121 12.9813 132.302 14.2738C133.483 15.5663 134.074 17.3762 134.074 19.705L134.047 19.98H123.471C123.508 21.3 123.946 22.3638 124.789 23.17C125.188 23.5619 125.66 23.8707 126.179 24.0784C126.698 24.2861 127.252 24.3886 127.811 24.38C129.422 24.38 130.687 23.5737 131.602 21.96L133.854 23.06C133.28 24.1652 132.409 25.0888 131.341 25.7275C130.269 26.3688 129.056 26.69 127.701 26.69ZM123.663 17.89H131.382C131.355 17.4464 131.241 17.0125 131.045 16.6136C130.849 16.2147 130.576 15.8587 130.242 15.5662C129.555 14.9525 128.635 14.645 127.481 14.645C126.529 14.645 125.71 14.9387 125.023 15.525C124.336 16.1125 123.883 16.9 123.663 17.89ZM142.425 26.69C140.447 26.69 138.816 26.0113 137.535 24.655C136.253 23.2988 135.612 21.5837 135.612 19.5125C135.612 17.4587 136.235 15.75 137.48 14.3837C138.725 13.0175 140.318 12.335 142.26 12.335C144.257 12.335 145.845 12.9813 147.026 14.2738C148.207 15.5663 148.798 17.3762 148.798 19.705L148.77 19.98H138.194C138.232 21.3 138.67 22.3638 139.513 23.17C139.912 23.5619 140.384 23.8707 140.903 24.0784C141.421 24.2861 141.976 24.3886 142.535 24.38C144.145 24.38 145.41 23.5737 146.325 21.96L148.578 23.06C148.003 24.1652 147.133 25.0888 146.065 25.7275C144.993 26.3688 143.78 26.69 142.425 26.69ZM138.387 17.89H146.106C146.079 17.4464 145.964 17.0125 145.769 16.6136C145.573 16.2147 145.3 15.8587 144.966 15.5662C144.279 14.9525 143.359 14.645 142.205 14.645C141.252 14.645 140.433 14.9387 139.746 15.525C139.06 16.1125 138.607 16.9 138.387 17.89ZM157.698 24.38C158.907 24.38 159.923 23.9213 160.747 23.005C161.571 22.1063 161.983 20.9425 161.983 19.5125C161.983 18.1 161.571 16.9375 160.747 16.02C159.923 15.1038 158.907 14.645 157.698 14.645C156.47 14.645 155.445 15.1038 154.621 16.02C153.816 16.9363 153.413 18.1012 153.413 19.5125C153.413 20.9425 153.816 22.1162 154.621 23.0325C155.445 23.9312 156.47 24.38 157.698 24.38ZM158.11 26.69C157.17 26.7016 156.242 26.4845 155.404 26.0575C154.589 25.6363 153.962 25.0762 153.523 24.38H153.413L153.523 26.25V32.19H150.995V12.775H153.413V14.645H153.523C153.962 13.9488 154.589 13.3888 155.404 12.9675C156.242 12.5405 157.17 12.3234 158.11 12.335C159.887 12.335 161.388 13.0313 162.615 14.425C163.879 15.8375 164.51 17.5325 164.51 19.5125C164.51 21.5112 163.879 23.2063 162.615 24.6C161.388 25.9938 159.887 26.69 158.11 26.69ZM169.785 26.25H167.257V6.56H169.785L176.624 18.55H176.734L183.574 6.56H186.101V26.25H183.574V14.5625L183.684 11.2625H183.574L177.421 22.07H175.938L169.785 11.2625H169.675L169.785 14.5625V26.25ZM192.886 8.1275C192.886 8.6225 192.712 9.04375 192.365 9.3925C192.201 9.56141 192.004 9.69492 191.787 9.78479C191.569 9.87465 191.336 9.91897 191.101 9.915C190.606 9.915 190.186 9.74 189.837 9.3925C189.669 9.22854 189.535 9.0317 189.445 8.81412C189.356 8.59655 189.311 8.36287 189.315 8.1275C189.315 7.6325 189.49 7.21125 189.837 6.8625C190.001 6.69359 190.198 6.56008 190.415 6.47021C190.632 6.38035 190.866 6.33603 191.101 6.34C191.595 6.34 192.016 6.515 192.365 6.8625C192.713 7.21125 192.886 7.6325 192.886 8.1275ZM192.365 12.775V26.25H189.837V12.775H192.365ZM195.661 12.775H198.078V14.645H198.188C198.573 13.985 199.163 13.435 199.96 12.995C200.718 12.5651 201.574 12.3378 202.446 12.335C204.094 12.335 205.363 12.8075 206.25 13.7513C207.138 14.695 207.583 16.0387 207.583 17.78V26.25H205.056V17.945C205.001 15.745 203.893 14.645 201.732 14.645C200.724 14.645 199.882 15.0525 199.204 15.8687C198.526 16.685 198.188 17.6613 198.188 18.7975V26.25H195.661V12.775ZM216.593 24.38C217.838 24.38 218.854 23.93 219.642 23.0325C220.466 22.1337 220.878 20.9612 220.878 19.5125C220.878 18.1 220.466 16.9375 219.642 16.02C218.837 15.1038 217.819 14.645 216.593 14.645C215.384 14.645 214.368 15.1038 213.544 16.02C212.72 16.9363 212.307 18.1012 212.307 19.5125C212.307 20.9425 212.72 22.1063 213.544 23.005C214.368 23.9213 215.384 24.38 216.593 24.38ZM216.181 26.69C214.423 26.69 212.912 25.9938 211.648 24.6C210.403 23.1875 209.78 21.4925 209.78 19.5125C209.78 17.5325 210.403 15.8375 211.648 14.425C212.912 13.0313 214.423 12.335 216.181 12.335C217.17 12.335 218.071 12.5463 218.886 12.9675C219.702 13.3888 220.329 13.9488 220.768 14.645H220.878L220.768 12.775V6.56H223.295V26.25H220.878V24.38H220.768C220.329 25.0762 219.702 25.6363 218.886 26.0575C218.049 26.4845 217.12 26.7016 216.181 26.69ZM24.906 15.6025H14.2715V18.7725H21.8145C21.4424 23.2187 17.7602 25.115 14.2853 25.115C9.8377 25.115 5.95699 21.6 5.95699 16.6737C5.95699 11.875 9.65665 8.18 14.294 8.18C17.8726 8.18 19.9815 10.4712 19.9815 10.4712L22.1915 8.17125L22.0367 8.01375C21.3799 7.3725 18.6542 5 14.1804 5C7.59268 5 2.49707 10.585 2.49707 16.6175C2.49707 22.5287 7.29177 28.2925 14.3477 28.2925C20.5558 28.2925 25.0983 24.0212 25.0983 17.705C25.104 17.074 25.0547 16.4437 24.951 15.8212L24.906 15.6025ZM33.6626 16.2463C35.809 16.2463 37.8417 17.99 37.8417 20.7987C37.8417 23.5475 35.8177 25.34 33.6526 25.34C31.274 25.34 29.3973 23.4275 29.3973 20.7775C29.3973 18.1838 31.2515 16.2463 33.6626 16.2463ZM33.6189 13.3062C29.255 13.3062 26.1272 16.7337 26.1272 20.7312C26.1272 24.7875 29.1613 28.2787 33.6701 28.2787C37.7531 28.2787 41.0969 25.1437 41.0969 20.8187C41.0969 15.9725 37.381 13.4237 33.8636 13.31L33.6189 13.3062ZM49.9571 16.2463C52.1047 16.2463 54.1374 17.99 54.1374 20.7987C54.1374 23.5475 52.1122 25.34 49.9471 25.34C47.5697 25.34 45.693 23.4275 45.693 20.7775C45.693 18.1838 47.546 16.2463 49.9571 16.2463ZM49.9146 13.3062C45.5494 13.3062 42.4229 16.7337 42.4229 20.7312C42.4229 24.7875 45.457 28.2787 49.9646 28.2787C54.0475 28.2787 57.3926 25.1437 57.3926 20.8187C57.3926 15.9725 53.6767 13.4237 50.1593 13.31L49.9146 13.3062ZM66.1841 16.25C68.1482 16.25 70.1647 17.935 70.1647 20.8125C70.1647 23.735 68.1532 25.3475 66.1417 25.3475C64.0065 25.3475 62.0187 23.605 62.0187 20.8387C62.0187 17.965 64.0814 16.2513 66.1841 16.2513V16.25ZM65.8944 13.315C61.8889 13.315 58.7399 16.84 58.7399 20.795C58.7399 25.3012 62.3908 28.29 65.8258 28.29C67.9484 28.29 69.0784 27.4425 69.9125 26.4713V27.9463C69.9125 30.53 68.3517 32.0762 65.9956 32.0762C63.7181 32.0762 62.5769 30.3762 62.1798 29.4112L59.3167 30.6137C60.3318 32.7712 62.3771 35.0225 66.0193 35.0225C70.0024 35.0225 73.0365 32.5025 73.0365 27.2175V13.765H69.9125V15.0325C69.0122 14.0575 67.8011 13.4 66.2166 13.3225L65.8944 13.315ZM87.0598 16.1775C88.4208 16.1775 89.4009 16.9037 89.818 17.7762L83.1441 20.5775C82.8569 18.4087 84.9022 16.1775 87.0598 16.1775ZM86.9299 13.2975C83.1516 13.2975 79.9789 16.3175 79.9789 20.7738C79.9789 25.4888 83.5149 28.2862 87.2933 28.2862C90.446 28.2862 92.3814 26.5525 93.5364 25L90.9605 23.2787C90.2912 24.32 89.1749 25.3387 87.3083 25.3387C85.2131 25.3387 84.2491 24.1862 83.6536 23.07L93.6462 18.9038L93.1281 17.6838C92.1953 15.375 90.064 13.435 87.2358 13.3038L86.9299 13.2975ZM75.2166 27.84H78.498V5.775H75.2166V27.84Z" fill="black"/>
</g>
<defs>
<clipPath id="clip0_908_1042">
<rect width="226" height="30" fill="white" transform="translate(0 5)"/>
</clipPath>
</defs>
</svg>
