<svg width="90" height="40" viewBox="0 0 90 40" fill="none" xmlns="http://www.w3.org/2000/svg">
<path d="M73.935 7V7.7275C72.8275 7.7275 72.135 7.8425 71.8575 8.07375C71.6038 8.28125 71.6388 8.65 71.9613 9.18125L85.1538 29.0563C85.6163 29.7263 85.985 30.1763 86.2625 30.4063C86.5625 30.615 86.955 30.7413 87.44 30.7875V31.515C86.932 31.4845 86.4236 31.4616 85.915 31.4462C85.2361 31.3984 84.5556 31.3746 83.875 31.375C82.9275 31.375 81.9587 31.3987 80.9662 31.445C79.9962 31.4675 79.2687 31.4913 78.7837 31.5138V30.7875C79.8925 30.7875 80.6087 30.7175 80.9312 30.5788C81.2537 30.4413 81.2537 30.1162 80.9312 29.61L67.5625 9.45875C67.125 8.78875 66.7662 8.33875 66.49 8.10875C66.2125 7.8775 65.8088 7.75 65.2775 7.7275V7C65.6475 7.0225 66.1662 7.0575 66.8362 7.10375C67.5287 7.1275 68.2212 7.13875 68.9137 7.13875C69.9062 7.13875 70.83 7.12625 71.6838 7.10375C72.5613 7.0575 73.3125 7.0225 73.935 7ZM75.32 18.9813L75.39 19.2225C75.4363 19.3612 75.4825 19.5112 75.5275 19.6725L75.6325 19.8813L71.615 25.6975C70.7613 26.945 70.3 27.9375 70.23 28.6762C70.1837 29.3912 70.4263 29.9225 70.9575 30.2687C71.5113 30.5925 72.2737 30.7763 73.2425 30.8225V31.515C72.8622 31.4904 72.4811 31.4791 72.1 31.4812C71.6625 31.4575 71.2125 31.4462 70.75 31.4462C70.3004 31.4233 69.8502 31.4117 69.4 31.4112H68.325C67.725 31.4112 67.16 31.4237 66.6287 31.4462C66.0987 31.4462 65.6488 31.4687 65.2788 31.515V30.8225C66.0413 30.66 66.7675 30.2913 67.46 29.715C68.1525 29.115 68.8562 28.3063 69.5725 27.29L75.32 18.9813ZM86.435 7V7.6925C85.72 7.83 85.0275 8.18875 84.3575 8.76625C83.6888 9.3425 83.03 10.0937 82.3837 11.0162L76.8088 19.05L76.6712 18.6L76.5675 18.15L80.41 12.6437C81.2412 11.4437 81.7262 10.4863 81.865 9.77C82.0275 9.055 81.8762 8.535 81.415 8.2125C80.9762 7.88875 80.2725 7.715 79.3025 7.6925V7C79.74 7.0225 80.2025 7.04625 80.6875 7.06875C81.1725 7.06875 81.645 7.08125 82.1075 7.10375H83.4225C84.0463 7.10375 84.6113 7.09125 85.12 7.06875C85.65 7.04625 86.0887 7.0225 86.435 7ZM64.0463 7V7.6925C63.2838 7.73875 62.7075 7.8775 62.315 8.1075C61.9225 8.33875 61.6575 8.72 61.5188 9.25125C61.3813 9.75875 61.3113 10.4862 61.3113 11.4325V21.4387C61.3113 23.0087 61.2075 24.405 60.9988 25.6287C60.7913 26.8525 60.4225 27.9038 59.8912 28.7788C59.3137 29.7488 58.46 30.5338 57.3288 31.135C56.2213 31.7113 54.8937 32 53.3475 32C52.2387 32 51.165 31.8725 50.1262 31.6187C49.1058 31.3745 48.1645 30.8742 47.3912 30.165C46.733 29.585 46.1821 28.8936 45.7638 28.1225C45.3713 27.3838 45.1063 26.495 44.9675 25.4562C44.83 24.3937 44.76 23.09 44.76 21.5438V10.6687C44.76 9.815 44.69 9.19125 44.5525 8.79875C44.5068 8.60684 44.4127 8.42983 44.2792 8.28455C44.1458 8.13927 43.9773 8.03056 43.79 7.96875C43.3975 7.80625 42.8088 7.71375 42.0238 7.69125V7C42.555 7.0225 43.2362 7.04625 44.0675 7.06875C45.8447 7.11544 47.6228 7.11544 49.4 7.06875C50.2762 7.04625 50.9925 7.0225 51.5463 7V7.6925C50.7613 7.715 50.1612 7.8075 49.7462 7.97C49.5564 8.03414 49.3849 8.14305 49.2461 8.28752C49.1072 8.432 49.0053 8.60778 48.9487 8.8C48.8112 9.1925 48.7413 9.81625 48.7413 10.67V22.6512C48.7413 23.8287 48.8 24.9137 48.915 25.9062C49.0525 26.8988 49.2962 27.7637 49.6425 28.5025C50.0112 29.2187 50.5425 29.7837 51.235 30.2C51.95 30.5925 52.8725 30.7875 54.005 30.7875C55.7125 30.7875 57.0288 30.4075 57.9525 29.645C58.8988 28.86 59.5562 27.7988 59.9262 26.46C60.3187 25.0975 60.5138 23.5512 60.5138 21.82V11.57C60.5138 10.5775 60.4225 9.81625 60.2375 9.285C60.0525 8.755 59.73 8.3725 59.2675 8.1425C58.8062 7.88875 58.1488 7.73875 57.2938 7.6925V7C57.7325 7.0225 58.2987 7.04625 58.9912 7.06875C59.6837 7.0925 60.3188 7.10375 60.895 7.10375C61.495 7.10375 62.0725 7.09125 62.6262 7.06875C63.2037 7.04625 63.6763 7.0225 64.0463 7ZM31.5062 7V7.6925C30.7212 7.715 30.1213 7.8075 29.7063 7.97C29.5167 8.03431 29.3454 8.1433 29.2068 8.28776C29.0682 8.43222 28.9664 8.60792 28.91 8.8C28.7712 9.1925 28.7025 9.81625 28.7025 10.67V27.9825C28.7025 28.7687 28.76 29.3575 28.875 29.7487C29.0125 30.1412 29.2675 30.4075 29.6375 30.5462C30.0288 30.6612 30.5825 30.7188 31.2987 30.7188H33.5488C34.5425 30.7188 35.3737 30.5812 36.0425 30.3037C36.7155 30.0405 37.3111 29.6114 37.7737 29.0563C38.2362 28.5025 38.5938 27.7875 38.8475 26.91C39.1013 26.0325 39.2975 25.005 39.435 23.8288H40.2325C40.1545 24.7963 40.1199 25.7669 40.1287 26.7375C40.1287 27.1988 40.14 27.88 40.1625 28.78C40.2087 29.6575 40.2787 30.5687 40.3712 31.515C39.0443 31.4663 37.7166 31.4434 36.3887 31.4462C35.073 31.4244 33.7572 31.4127 32.4413 31.4112H30.4C29.5687 31.4112 28.6687 31.4237 27.7 31.4462C26.7525 31.4462 25.7825 31.4575 24.79 31.48C23.8213 31.48 22.8863 31.4925 21.985 31.515V30.8225C22.77 30.7763 23.36 30.685 23.7512 30.5462C23.9388 30.4844 24.1074 30.3756 24.2409 30.23C24.3744 30.0845 24.4683 29.9072 24.5137 29.715C24.6512 29.2988 24.7213 28.6763 24.7213 27.845V10.67C24.7213 9.81625 24.6525 9.1925 24.5137 8.8C24.4648 8.60411 24.3654 8.42444 24.2255 8.27884C24.0856 8.13324 23.91 8.02677 23.7162 7.97C23.325 7.8075 22.7475 7.715 21.9863 7.6925V7C22.5163 7.0225 23.1975 7.04625 24.0287 7.06875C25.8059 7.11543 27.5841 7.11543 29.3612 7.06875C30.2375 7.04625 30.9538 7.0225 31.5075 7H31.5062ZM19.6938 7C19.6035 7.89826 19.5343 8.7985 19.4863 9.7C19.4665 10.3694 19.4548 11.0391 19.4513 11.7088C19.4513 12.24 19.4638 12.7475 19.4863 13.2337C19.5088 13.7175 19.5325 14.1337 19.555 14.4787H18.7587C18.5512 12.7937 18.2625 11.4787 17.8938 10.5312C17.5475 9.5625 17.0162 8.86875 16.3 8.45375C15.585 8.01625 14.5575 7.79625 13.2188 7.79625H11.3837C10.645 7.79625 10.08 7.86625 9.6875 8.00375C9.3175 8.12 9.06375 8.37375 8.925 8.76625C8.7875 9.135 8.7175 9.72375 8.7175 10.5312V27.7763C8.7175 28.63 8.81 29.2762 8.995 29.7137C9.17875 30.13 9.525 30.4075 10.0325 30.5462C10.5412 30.6837 11.2913 30.765 12.2838 30.7888V31.515C11.4769 31.4634 10.6685 31.4405 9.86 31.4462C8.8675 31.4225 7.84 31.4112 6.77875 31.4112C5.855 31.4112 4.96625 31.4237 4.1125 31.4462C3.28125 31.4462 2.5775 31.4687 2 31.515V30.8225C2.785 30.7763 3.37375 30.685 3.76625 30.5462C3.95381 30.4844 4.12238 30.3756 4.25588 30.23C4.38937 30.0845 4.48332 29.9072 4.52875 29.715C4.66625 29.2988 4.735 28.6763 4.735 27.845V10.67C4.735 9.81625 4.66625 9.1925 4.5275 8.8C4.47862 8.60426 4.37943 8.42469 4.23976 8.2791C4.10009 8.13351 3.9248 8.02696 3.73125 7.97C3.33875 7.8075 2.76125 7.715 2 7.6925V7C2.9 7.0225 3.835 7.04625 4.805 7.06875C5.7975 7.06875 6.7675 7.08125 7.71375 7.10375H16.0575C17.42 7.08125 18.6313 7.04625 19.6938 7ZM14.3962 19.1187V19.8112H7.67875V19.1187H14.3962ZM15.1237 14.5487C15.0449 15.5512 14.9987 16.5558 14.985 17.5613C15.0075 18.2538 15.0187 18.8888 15.0187 19.465C15.0187 20.0425 15.0312 20.6775 15.0537 21.37C15.0775 22.0625 15.135 23.0663 15.2275 24.3825H14.4312C14.3436 23.6466 14.2045 22.9177 14.015 22.2013C13.83 21.485 13.4963 20.9088 13.0113 20.47C12.5263 20.0313 11.7988 19.8112 10.83 19.8112V19.1187C11.5675 19.1187 12.145 18.9688 12.5613 18.6688C12.9988 18.3688 13.3337 17.9762 13.565 17.4912C13.7962 17.0062 13.9575 16.51 14.05 16.0038C14.1559 15.5215 14.248 15.0363 14.3263 14.5487H15.1237Z" fill="black"/>
</svg>
